<svg xmlns="http://www.w3.org/2000/svg" width="1141" height="1232" viewBox="0 0 1141 1232" font-family="Helvetica, Arial, sans-serif">
<rect width="1141" height="1232" fill="white"/>
<polygon points="80.0,469.1 80.0,767.3 440.5,767.3 440.5,469.1" fill="#e8f1fb" stroke="#222" stroke-width="4"/>
<polygon points="690.3,457.1 690.3,80.0 383.2,80.0 383.2,457.1" fill="#fdf1e3" stroke="#222" stroke-width="4"/>
<polygon points="523.6,469.8 624.5,469.8 624.5,724.8 523.6,724.8" fill="#eaf6ec" stroke="#222" stroke-width="4"/>
<polygon points="562.8,840.9 562.8,1151.8 1061.1,1151.8 1061.1,840.9" fill="#f7e9f3" stroke="#222" stroke-width="4"/>
<text x="80.0" y="610.2" font-size="12" fill="#1a4d8f" text-anchor="middle" transform="rotate(-90 80.0 618.2)">2.98 ±58cm</text>
<text x="260.2" y="759.3" font-size="12" fill="#1a4d8f" text-anchor="middle">3.60 ±71cm</text>
<text x="440.5" y="610.2" font-size="12" fill="#1a4d8f" text-anchor="middle" transform="rotate(-90 440.5 618.2)">2.98 ±58cm</text>
<text x="260.2" y="461.1" font-size="12" fill="#1a4d8f" text-anchor="middle">3.60 ±71cm</text>
<text x="690.3" y="260.5" font-size="12" fill="#1a4d8f" text-anchor="middle" transform="rotate(-90 690.3 268.5)">3.77 ±74cm</text>
<text x="536.8" y="72.0" font-size="12" fill="#1a4d8f" text-anchor="middle">3.07 ±60cm</text>
<text x="383.2" y="260.5" font-size="12" fill="#1a4d8f" text-anchor="middle" transform="rotate(-90 383.2 268.5)">3.77 ±74cm</text>
<text x="536.8" y="449.1" font-size="12" fill="#1a4d8f" text-anchor="middle">3.07 ±60cm</text>
<text x="574.0" y="461.8" font-size="12" fill="#b03a2e" text-anchor="middle">1.01 ±20cm</text>
<text x="624.5" y="589.3" font-size="12" fill="#1a4d8f" text-anchor="middle" transform="rotate(-90 624.5 597.3)">2.55 ±52cm</text>
<text x="574.0" y="716.8" font-size="12" fill="#b03a2e" text-anchor="middle">1.01 ±20cm</text>
<text x="523.6" y="589.3" font-size="12" fill="#1a4d8f" text-anchor="middle" transform="rotate(-90 523.6 597.3)">2.55 ±52cm</text>
<text x="562.8" y="988.3" font-size="12" fill="#1a4d8f" text-anchor="middle" transform="rotate(-90 562.8 996.3)">3.11 ±61cm</text>
<text x="811.9" y="1143.8" font-size="12" fill="#1a4d8f" text-anchor="middle">4.98 ±98cm</text>
<text x="1061.1" y="988.3" font-size="12" fill="#1a4d8f" text-anchor="middle" transform="rotate(-90 1061.1 996.3)">3.11 ±61cm</text>
<text x="811.9" y="832.9" font-size="12" fill="#1a4d8f" text-anchor="middle">4.98 ±98cm</text>
<line x1="383.2" y1="426.1" x2="383.2" y2="362.0" stroke="white" stroke-width="8"/>
<line x1="383.2" y1="426.1" x2="383.2" y2="362.0" stroke="#2e86c1" stroke-width="3" stroke-dasharray="6,3"/>
<text x="383.2" y="412.1" font-size="11" fill="#2e86c1" text-anchor="middle">window 0.64</text>
<line x1="562.8" y1="1089.8" x2="562.8" y2="991.8" stroke="white" stroke-width="8"/>
<line x1="562.8" y1="1089.8" x2="562.8" y2="991.8" stroke="#2e86c1" stroke-width="3" stroke-dasharray="6,3"/>
<text x="562.8" y="1058.8" font-size="11" fill="#2e86c1" text-anchor="middle">window 0.98</text>
<line x1="1061.1" y1="1109.8" x2="1061.1" y2="1035.8" stroke="white" stroke-width="8"/>
<line x1="1061.1" y1="1109.8" x2="1061.1" y2="1035.8" stroke="#2e86c1" stroke-width="3" stroke-dasharray="6,3"/>
<text x="1061.1" y="1090.8" font-size="11" fill="#2e86c1" text-anchor="middle">window 0.74</text>
<line x1="809.5" y1="840.9" x2="884.7" y2="840.9" stroke="white" stroke-width="8"/>
<line x1="809.5" y1="840.9" x2="884.7" y2="840.9" stroke="#c0392b" stroke-width="3" stroke-dasharray="none"/>
<text x="847.1" y="858.9" font-size="11" fill="#c0392b" text-anchor="middle">door 0.75</text>
<text x="260.2" y="618.2" font-size="16" font-weight="bold" text-anchor="middle">bedroom1</text>
<text x="260.2" y="636.2" font-size="12" text-anchor="middle">10.75 ± 4.22 m²</text>
<text x="260.2" y="652.2" font-size="12" text-anchor="middle">ceiling 2.507 m</text>
<text x="536.8" y="268.5" font-size="16" font-weight="bold" text-anchor="middle">bedroom2</text>
<text x="536.8" y="286.5" font-size="12" text-anchor="middle">11.58 ± 4.54 m²</text>
<text x="536.8" y="302.5" font-size="12" text-anchor="middle">ceiling 2.629 m</text>
<text x="574.0" y="597.3" font-size="16" font-weight="bold" text-anchor="middle">hall</text>
<text x="574.0" y="615.3" font-size="12" text-anchor="middle">2.58 ± 1.02 m²</text>
<text x="811.9" y="996.3" font-size="16" font-weight="bold" text-anchor="middle">living</text>
<text x="811.9" y="1014.3" font-size="12" text-anchor="middle">15.49 ± 6.07 m²</text>
<text x="811.9" y="1030.3" font-size="12" text-anchor="middle">ceiling 2.704 m</text>
<text x="80" y="30" font-size="14">Tier: photo · total 40.40 m² · blue = located on 3D points, red = grid-only (wider interval) · ±values are 95% intervals</text>
</svg>